<?xml version="1.0" encoding="utf-8"?>
<!-- Generator: Adobe Illustrator 16.0.0, SVG Export Plug-In . SVG Version: 6.00 Build 0)  -->
<!DOCTYPE svg PUBLIC "-//W3C//DTD SVG 1.1//EN" "http://www.w3.org/Graphics/SVG/1.1/DTD/svg11.dtd">
<svg version="1.1" id="Layer_1" xmlns="http://www.w3.org/2000/svg" xmlns:xlink="http://www.w3.org/1999/xlink" x="0px" y="0px"
	 width="250px" height="74.337px" viewBox="367.203 218.374 250 74.337" enable-background="new 367.203 218.374 250 74.337"
	 xml:space="preserve">
<g id="mark">
	<path d="M403.49,227.782c0.188-0.004,0.375-0.014,0.564-0.014c2.891,0.004,5.677,0.446,8.299,1.264l-22.383,2.525
		c2.547-1.482,5.346-2.578,8.321-3.198L403.49,227.782 M431.562,278.757c0.004,0.711,0.009,1.413,0.021,2.118
		c-6.795,7.291-16.489,11.849-27.224,11.836c-19.253-0.023-35.118-14.74-36.977-33.507c-0.061-0.606-0.104-1.219-0.136-1.829
		c-0.032-0.631-0.046-1.271-0.045-1.911v-0.156c0-0.27,0.005-0.535,0.015-0.801c0.005-0.26,0.016-0.521,0.029-0.777
		c0.016-0.298,0.034-0.597,0.054-0.891c0.023-0.3,0.048-0.593,0.077-0.886c0.048-0.518,0.104-1.029,0.182-1.536
		c1.067-7.64,4.454-14.536,9.428-19.957c0.541-0.587,1.102-1.154,1.676-1.708c-0.004-0.02-0.015-0.033-0.019-0.052
		c0.996-0.962,2.05-1.865,3.15-2.708c0.297,1.119,0.694,2.262,1.218,3.429c0.869,1.948,2.095,3.97,3.827,6.113
		c0.814,1.011,1.628,1.902,2.438,2.69l27.116-7.573c1.35,0.669,2.638,1.447,3.859,2.317c0.469,0.332-0.863,4.283-1.024,4.733
		c-0.571,1.629-1.36,3.179-2.366,4.58c-0.765,1.075-1.661,2.059-2.672,2.911c-0.109,0.091-0.337,0.289-0.626,0.531
		c-1.203-0.589-2.469-1.061-3.762-1.427c2.091-1.11,3.822-2.815,5.105-4.947l-8.134,4.257c-0.005,0-2.917,1.526-2.917,1.526
		l-0.251,0.133c0.37,0.081,0.743,0.167,1.113,0.248c6.516,1.438,13.253,2.93,20.012,11.299c5.693,7.046,6.614,13.053,6.788,18.764
		C431.552,276.643,431.556,277.705,431.562,278.757 M391.631,240.275c2.544,1.951,5.092,3.083,7.674,3.882l17.353-8.88
		c0.205-0.735,0.376-1.488,0.496-2.265L391.631,240.275z M427.78,279.828c-0.005-0.351-0.004-0.702-0.009-1.052
		c-0.035-6.3-0.065-12.249-5.99-19.583c-5.921-7.334-11.73-8.617-17.88-9.979c-6.516-1.44-13.258-2.931-20.012-11.3
		c-1.609-1.992-2.835-3.904-3.775-5.749c-0.612,0.639-1.201,1.297-1.761,1.979c-3.631,4.402-6.164,9.737-7.189,15.589
		c-0.028,0.161-0.057,0.326-0.081,0.492c-0.046,0.274-0.087,0.546-0.124,0.82c-0.065,0.49-0.124,0.982-0.168,1.479
		c-0.024,0.246-0.044,0.498-0.059,0.744c-0.019,0.251-0.034,0.503-0.043,0.754c-0.01,0.25-0.02,0.502-0.025,0.753
		c-0.01,0.228-0.01,0.46-0.01,0.692c0,0.289,0.004,0.583,0.009,0.867c0.403,18.243,15.363,32.964,33.7,32.986
		c8.456,0.01,16.199-3.108,22.136-8.258c0.437-0.379,0.862-0.771,1.28-1.175L427.78,279.828z"/>
	<path fill="#3F50A3" d="M390.751,280.352c-0.123-0.069-0.246-0.143-0.374-0.213l31.232-2.669
		c-4.811,3.898-10.947,6.234-17.625,6.226c-4.787-0.007-9.288-1.215-13.225-3.339C390.756,280.352,390.751,280.352,390.751,280.352
		 M385.642,259.335c-1.55,2.704-3.721,11.37-3.444,13.868c0,0,2.319,2.634,3.654,3.773l39.517-5.91
		c-0.358-1.206-0.835-2.434-1.465-3.689l-37.99,5.557c0.111-0.905,0.239-1.786,0.388-2.649l32.067-10.497
		c-1.032-1.044-2.064-1.922-3.097-2.672l-28.061,8.98c0.244-0.91,0.509-1.781,0.795-2.62l18.549-10.333
		c-1.294-0.343-2.602-0.629-3.923-0.924c-0.284-0.062-0.563-0.125-0.848-0.187l-11.55,6.28c1.796-3.32,4.06-5.892,6.669-7.532
		c-1.251-0.386-2.511-0.843-3.776-1.427C389.863,251.942,387.707,255.731,385.642,259.335 M404.45,218.374
		c-7.3-0.009-14.113,2.097-19.866,5.734c0.321,1.072,0.737,2.163,1.28,3.282c5.337-3.525,11.724-5.574,18.581-5.565
		c18.608,0.022,33.732,15.184,33.71,33.791c-0.007,5.816-1.492,11.293-4.104,16.072c0.084,1.518,0.091,3.006,0.099,4.483
		c0.005,0.569,0.003,1.138,0.012,1.703c4.667-6.209,7.436-13.912,7.445-22.253C441.631,235.108,424.964,218.399,404.45,218.374"/>
</g>
<g id="DNA">
	<path d="M455.5,274.162v-37.238h34.119c2.644,0,4.848,0.229,6.611,0.688c1.762,0.459,3.173,1.146,4.231,2.062
		c1.058,0.917,1.807,2.064,2.248,3.438c0.441,1.375,0.662,2.98,0.662,4.813v15.604c0,1.764-0.221,3.306-0.662,4.629
		c-0.44,1.322-1.189,2.425-2.248,3.306c-1.058,0.882-2.469,1.552-4.231,2.009c-1.764,0.461-3.968,0.688-6.611,0.688H455.5
		L455.5,274.162z M496.336,247.925c0-1.058-0.105-1.938-0.317-2.644c-0.212-0.706-0.574-1.271-1.084-1.692
		c-0.512-0.424-1.199-0.723-2.063-0.899c-0.864-0.176-1.948-0.265-3.252-0.265h-27.083v26.236h27.083
		c1.304,0,2.388-0.088,3.252-0.264c0.864-0.177,1.551-0.458,2.063-0.847c0.51-0.388,0.872-0.916,1.084-1.587
		c0.212-0.669,0.317-1.497,0.317-2.486V247.925z M559.282,274.162v-37.238h-6.136v27.665l-37.08-27.665h-6.082v37.238h6.135v-28.987
		l39.726,28.987H559.282z M617.203,274.162l-24.597-37.238h-5.131l-24.754,37.238h7.828l19.519-29.992l19.201,29.992H617.203z"/>
</g>
</svg>
