<?xml version="1.0" encoding="utf-8"?>
<!-- Generator: Adobe Illustrator 22.1.0, SVG Export Plug-In . SVG Version: 6.00 Build 0)  -->
<svg version="1.1" id="Layer_1" xmlns="http://www.w3.org/2000/svg" xmlns:xlink="http://www.w3.org/1999/xlink" x="0px" y="0px"
	 viewBox="0 0 435.5 109.6" style="enable-background:new 0 0 435.5 109.6;" xml:space="preserve">
<style type="text/css">
	.st0{fill:#FFFFFF;}
	.st1{fill:none;}
</style>
<g>
	<path class="st0" d="M137.4,74.6h-2.3l-6-20.8c-0.2-0.6-0.3-1.3-0.4-2.3h-0.1c0,0.4-0.2,1.2-0.5,2.3l-6.7,20.8H119l-8.3-27.5h2.7
		l6.4,22c0.2,0.6,0.3,1.3,0.4,2.3h0.2c0-0.5,0.2-1.3,0.5-2.3l7-22h1.7l6.2,22c0.1,0.5,0.3,1.3,0.4,2.3h0.2c0-0.5,0.2-1.3,0.5-2.3
		l6.5-22h2.6L137.4,74.6z"/>
	<path class="st0" d="M176.7,74.6V58.1c0-3.3-0.6-5.6-1.8-7.2c-1.2-1.5-3-2.3-5.5-2.3c-2.4,0-4.4,0.9-6.2,2.8
		c-1.8,1.8-2.7,4.5-2.7,7.9v15.2h-2.5V33.9h2.5V52h0.1c2.2-3.7,5.3-5.6,9.5-5.6c3,0,5.2,1,6.8,2.9c1.6,1.9,2.3,4.7,2.3,8.3v17.1
		H176.7z"/>
	<path class="st0" d="M195.2,40.1c-0.5,0-1-0.2-1.4-0.6c-0.4-0.4-0.6-0.9-0.6-1.5c0-0.6,0.2-1.1,0.6-1.4c0.4-0.4,0.9-0.6,1.4-0.6
		c0.6,0,1,0.2,1.5,0.5c0.4,0.4,0.6,0.8,0.6,1.5c0,0.6-0.2,1.1-0.6,1.5C196.3,39.9,195.8,40.1,195.2,40.1z M194,74.6V47.1h2.5v27.5
		H194z"/>
	<path class="st0" d="M222.8,74.2c-1.3,0.6-2.5,0.9-3.6,0.9c-4.1,0-6.1-2.4-6.1-7.3V49.3h-4.9v-2.3h4.9v-7.1
		c0.4-0.1,0.8-0.3,1.2-0.4c0.4-0.1,0.8-0.3,1.2-0.4v8h7.3v2.3h-7.3v18.2c0,1.9,0.3,3.3,0.9,4.1c0.6,0.9,1.6,1.3,3.1,1.3
		c1,0,2.1-0.3,3.3-1V74.2z"/>
	<path class="st0" d="M235.4,60.9c0,3.8,0.9,6.7,2.6,8.9c1.7,2.1,4.1,3.2,7.2,3.2c3.1,0,6.1-1.1,9-3.4v2.6c-2.8,2-6,3-9.5,3
		c-3.5,0-6.4-1.3-8.6-3.8c-2.2-2.5-3.3-6.1-3.3-10.8c0-4,1.1-7.4,3.4-10.1c2.3-2.8,5.3-4.1,8.9-4.1c3.4,0,6,1.2,7.9,3.6
		c1.8,2.4,2.7,5.7,2.7,9.8v1.1H235.4z M253.2,58.7c-0.1-3.2-0.9-5.6-2.3-7.4c-1.4-1.8-3.4-2.6-5.9-2.6c-2.6,0-4.7,0.9-6.4,2.6
		c-1.7,1.7-2.7,4.2-3.1,7.4H253.2z"/>
	<path class="st0" d="M271.8,69.7h-0.1v4.9h-2.5V33.9h2.5v18.9h0.1c1-2,2.4-3.6,4.2-4.7c1.8-1.1,3.9-1.7,6.1-1.7
		c3.5,0,6.2,1.2,8.2,3.6c2,2.4,2.9,5.7,2.9,9.8c0,4.6-1.1,8.3-3.4,11.2c-2.3,2.8-5.2,4.3-8.9,4.3C276.9,75.3,273.8,73.4,271.8,69.7z
		 M271.7,59.5v3.5c0,2.8,0.9,5.1,2.6,7.1c1.7,2,4,3,6.9,3c2.8,0,5.1-1.2,6.9-3.6c1.8-2.4,2.6-5.6,2.6-9.5c0-3.4-0.8-6.2-2.4-8.2
		c-1.6-2-3.8-3-6.5-3c-3.2,0-5.7,1.1-7.4,3.2C272.6,54,271.7,56.6,271.7,59.5z"/>
	<path class="st0" d="M306.7,74.6V33.9h2.5v40.7H306.7z"/>
	<path class="st0" d="M335.6,75.3c-4,0-7.2-1.3-9.5-4c-2.3-2.6-3.5-6.1-3.5-10.3c0-4.6,1.2-8.1,3.7-10.7c2.4-2.6,5.7-3.9,9.7-3.9
		c3.9,0,7,1.3,9.3,3.8c2.3,2.6,3.4,6.1,3.4,10.6c0,4.3-1.2,7.8-3.5,10.4C342.8,73.9,339.7,75.3,335.6,75.3z M335.8,48.7
		c-3.2,0-5.8,1.1-7.8,3.3c-1.9,2.2-2.9,5.2-2.9,9.1c0,3.6,0.9,6.5,2.8,8.7c1.9,2.2,4.5,3.3,7.7,3.3c3.3,0,5.9-1.1,7.7-3.2
		s2.7-5.1,2.7-9c0-3.9-0.9-6.9-2.7-9C341.6,49.7,339.1,48.7,335.8,48.7z"/>
	<path class="st0" d="M379.9,73.4c-2,1.3-4.5,1.9-7.3,1.9c-3.7,0-6.8-1.3-9.1-3.9c-2.3-2.6-3.4-5.9-3.4-10.1c0-4.4,1.3-8,3.9-10.7
		c2.6-2.8,5.9-4.2,9.9-4.2c2.1,0,4.1,0.4,6.1,1.3v2.8c-2-1.2-4.1-1.8-6.5-1.8c-3.2,0-5.8,1.2-7.8,3.5c-2,2.3-3,5.3-3,9
		c0,3.6,0.9,6.4,2.8,8.6c1.8,2.2,4.3,3.3,7.3,3.3c2.8,0,5.2-0.7,7.2-2.2V73.4z"/>
	<path class="st0" d="M408.9,74.6L395.7,61h-0.1v13.6h-2.5V33.9h2.5v26.3h0.1l12.5-13h3.2l-13.1,13.3l14.1,14.2H408.9z"/>
</g>
<rect x="84.6" y="45.3" class="st0" width="7.5" height="19"/>
<path d="M92.2,20.4"/>
<polygon class="st0" points="23.1,37.8 30.6,37.8 30.6,28 40.8,28 40.8,20.4 23.1,20.4 "/>
<rect x="23.1" y="45.3" class="st0" width="7.5" height="19"/>
<polygon class="st0" points="23.1,71.8 30.6,71.8 30.6,81.6 40.8,81.6 40.8,89.1 23.1,89.1 "/>
<rect x="48.3" y="81.6" class="st0" width="18.6" height="7.5"/>
<polygon class="st0" points="74.4,81.6 74.4,89.1 92.2,89.1 92.2,71.8 84.6,71.8 84.6,81.6 "/>
<polygon class="st0" points="74.4,20.4 74.4,28 84.6,28 84.6,37.8 92.2,37.8 92.2,20.4 "/>
<rect x="48.3" y="20.4" class="st0" width="18.6" height="7.5"/>
<rect x="23.1" y="20.4" class="st1" width="68.7" height="68.7"/>
</svg>
