<?xml version="1.0" encoding="utf-8"?>
<!-- Generator: Adobe Illustrator 22.1.0, SVG Export Plug-In . SVG Version: 6.00 Build 0)  -->
<svg version="1.1" id="Layer_1" xmlns="http://www.w3.org/2000/svg" xmlns:xlink="http://www.w3.org/1999/xlink" x="0px" y="0px"
	 viewBox="0 0 150 150" style="enable-background:new 0 0 150 150;" xml:space="preserve">
<style type="text/css">
	.st0{fill:#FFFFFF;}
	.st1{fill:none;}
</style>
<g>
	<rect x="130.8" y="55.4" class="st0" width="15.5" height="39.2"/>
	<path d="M146.3,4.1"/>
	<polygon class="st0" points="3.7,39.9 19.2,39.9 19.2,19.6 40.3,19.6 40.3,4.1 3.7,4.1 	"/>
	<rect x="3.7" y="55.4" class="st0" width="15.5" height="39.2"/>
	<polygon class="st0" points="3.7,110.1 19.2,110.1 19.2,130.4 40.3,130.4 40.3,145.9 3.7,145.9 	"/>
	<rect x="55.8" y="130.4" class="st0" width="38.3" height="15.5"/>
	<polygon class="st0" points="109.7,130.4 109.7,145.9 146.3,145.9 146.3,110.1 130.8,110.1 130.8,130.4 	"/>
	<polygon class="st0" points="109.7,4.1 109.7,19.6 130.8,19.6 130.8,39.9 146.3,39.9 146.3,4.1 	"/>
	<rect x="55.8" y="4.1" class="st0" width="38.3" height="15.5"/>
	<rect x="3.7" y="4.1" class="st1" width="141.8" height="141.8"/>
</g>
</svg>
